<svg width="186" height="36" viewBox="0 0 186 36" fill="none" xmlns="http://www.w3.org/2000/svg">
<path d="M15.5211 4.83399C16.6579 2.74802 19.6529 2.74802 20.7896 4.83399L23.0769 9.03122C23.5082 9.82272 24.2726 10.3783 25.1585 10.5444L29.8577 11.425C32.1911 11.8623 33.1161 14.7082 31.4859 16.4339L28.1987 19.9135C27.5802 20.5682 27.2886 21.4662 27.4044 22.3594L28.0198 27.1058C28.3252 29.4611 25.9026 31.2204 23.7574 30.2013L19.4427 28.1516C18.6281 27.7646 17.6827 27.7646 16.8681 28.1516L12.5534 30.2013C10.4082 31.2204 7.98561 29.4611 8.29099 27.1058L8.90639 22.3594C9.0222 21.4662 8.73058 20.5682 8.11206 19.9135L4.82489 16.4339C3.19463 14.7082 4.11968 11.8623 6.45305 11.425L11.1522 10.5444C12.0382 10.3783 12.8026 9.82271 13.2339 9.03122L15.5211 4.83399Z" fill="#FFB648"/>
<path d="M53.4916 4.83399C54.6283 2.74802 57.6234 2.74802 58.7601 4.83399L61.0473 9.03122C61.4787 9.82272 62.243 10.3783 63.129 10.5444L67.8282 11.425C70.1615 11.8623 71.0866 14.7082 69.4563 16.4339L66.1692 19.9135C65.5506 20.5682 65.259 21.4662 65.3748 22.3594L65.9902 27.1058C66.2956 29.4611 63.873 31.2204 61.7278 30.2013L57.4132 28.1516C56.5986 27.7646 55.6531 27.7646 54.8385 28.1516L50.5239 30.2013C48.3786 31.2204 45.9561 29.4611 46.2614 27.1058L46.8769 22.3594C46.9927 21.4662 46.701 20.5682 46.0825 19.9135L42.7954 16.4339C41.1651 14.7082 42.0901 11.8623 44.4235 11.425L49.1227 10.5444C50.0087 10.3783 50.773 9.82271 51.2043 9.03122L53.4916 4.83399Z" fill="#FFB648"/>
<path d="M90.4625 4.83399C91.5993 2.74802 94.5943 2.74802 95.731 4.83399L98.0183 9.03122C98.4496 9.82272 99.214 10.3783 100.1 10.5444L104.799 11.425C107.132 11.8623 108.058 14.7082 106.427 16.4339L103.14 19.9135C102.522 20.5682 102.23 21.4662 102.346 22.3594L102.961 27.1058C103.267 29.4611 100.844 31.2204 98.6988 30.2013L94.3841 28.1516C93.5695 27.7646 92.6241 27.7646 91.8095 28.1516L87.4948 30.2013C85.3496 31.2204 82.927 29.4611 83.2324 27.1058L83.8478 22.3594C83.9636 21.4662 83.672 20.5682 83.0535 19.9135L79.7663 16.4339C78.136 14.7082 79.0611 11.8623 81.3945 11.425L86.0936 10.5444C86.9796 10.3783 87.744 9.82271 88.1753 9.03122L90.4625 4.83399Z" fill="#FFB648"/>
<path d="M128.433 4.83399C129.57 2.74802 132.565 2.74802 133.701 4.83399L135.989 9.03122C136.42 9.82272 137.184 10.3783 138.07 10.5444L142.77 11.425C145.103 11.8623 146.028 14.7082 144.398 16.4339L141.111 19.9135C140.492 20.5682 140.2 21.4662 140.316 22.3594L140.932 27.1058C141.237 29.4611 138.814 31.2204 136.669 30.2013L132.355 28.1516C131.54 27.7646 130.595 27.7646 129.78 28.1516L125.465 30.2013C123.32 31.2204 120.897 29.4611 121.203 27.1058L121.818 22.3594C121.934 21.4662 121.642 20.5682 121.024 19.9135L117.737 16.4339C116.106 14.7082 117.032 11.8623 119.365 11.425L124.064 10.5444C124.95 10.3783 125.714 9.82271 126.146 9.03122L128.433 4.83399Z" fill="#FFB648"/>
<path d="M164.405 4.83399C165.541 2.74802 168.536 2.74802 169.673 4.83399L171.96 9.03122C172.392 9.82272 173.156 10.3783 174.042 10.5444L178.741 11.425C181.075 11.8623 182 14.7082 180.369 16.4339L177.082 19.9135C176.464 20.5682 176.172 21.4662 176.288 22.3594L176.903 27.1058C177.209 29.4611 174.786 31.2204 172.641 30.2013L168.326 28.1516C167.512 27.7646 166.566 27.7646 165.752 28.1516L161.437 30.2013C159.292 31.2204 156.869 29.4611 157.175 27.1058L157.79 22.3594C157.906 21.4662 157.614 20.5682 156.996 19.9135L153.708 16.4339C152.078 14.7082 153.003 11.8623 155.337 11.425L160.036 10.5444C160.922 10.3783 161.686 9.82271 162.117 9.03122L164.405 4.83399Z" fill="#D7D1C7"/>
<mask id="mask0_482_1635" style="mask-type:alpha" maskUnits="userSpaceOnUse" x="152" y="3" width="30" height="28">
<path d="M164.405 4.83399C165.541 2.74802 168.536 2.74802 169.673 4.83399L171.96 9.03122C172.392 9.82272 173.156 10.3783 174.042 10.5444L178.741 11.425C181.075 11.8623 182 14.7082 180.369 16.4339L177.082 19.9135C176.464 20.5682 176.172 21.4662 176.288 22.3594L176.903 27.1058C177.209 29.4611 174.786 31.2204 172.641 30.2013L168.326 28.1516C167.512 27.7646 166.566 27.7646 165.752 28.1516L161.437 30.2013C159.292 31.2204 156.869 29.4611 157.175 27.1058L157.79 22.3594C157.906 21.4662 157.614 20.5682 156.996 19.9135L153.708 16.4339C152.078 14.7082 153.003 11.8623 155.337 11.425L160.036 10.5444C160.922 10.3783 161.686 9.82271 162.117 9.03122L164.405 4.83399Z" fill="#D7D1C7"/>
</mask>
<g mask="url(#mask0_482_1635)">
<rect x="166.04" y="38" width="15.9875" height="43" transform="rotate(-180 166.04 38)" fill="#FFB648"/>
</g>
</svg>
