<svg width="248" height="32" viewBox="0 0 248 32" fill="none" xmlns="http://www.w3.org/2000/svg">
<path d="M1.44 23H9.189V21.227H3.321V10.04H1.44V23ZM15.028 23.27C15.97 23.27 16.825 23.033 17.593 22.559C18.361 22.079 18.934 21.404 19.312 20.534L17.467 19.949C16.975 20.981 16.132 21.497 14.938 21.497C14.122 21.497 13.48 21.251 13.012 20.759C12.544 20.267 12.271 19.571 12.193 18.671H19.438C19.504 17.507 19.366 16.502 19.024 15.656C18.682 14.81 18.163 14.159 17.467 13.703C16.771 13.241 15.928 13.01 14.938 13.01C13.99 13.01 13.159 13.223 12.445 13.649C11.731 14.075 11.173 14.678 10.771 15.458C10.375 16.238 10.177 17.159 10.177 18.221C10.177 19.223 10.378 20.105 10.78 20.867C11.188 21.623 11.755 22.214 12.481 22.64C13.213 23.06 14.062 23.27 15.028 23.27ZM15.01 14.675C16.48 14.675 17.314 15.518 17.512 17.204H12.238C12.358 16.382 12.649 15.755 13.111 15.323C13.573 14.891 14.206 14.675 15.01 14.675ZM24.0265 23.27C25.5745 23.27 26.7415 22.709 27.5275 21.587V23H29.1925V17.015C29.1925 16.607 29.1745 16.226 29.1385 15.872C29.1025 15.518 29.0065 15.182 28.8505 14.864C28.5505 14.222 28.0765 13.754 27.4285 13.46C26.7865 13.16 26.0305 13.01 25.1605 13.01C24.0385 13.01 23.1385 13.256 22.4605 13.748C21.7825 14.24 21.3265 14.903 21.0925 15.737L22.8475 16.277C23.0155 15.737 23.3125 15.347 23.7385 15.107C24.1645 14.867 24.6325 14.747 25.1425 14.747C25.8985 14.747 26.4445 14.909 26.7805 15.233C27.1225 15.551 27.3085 16.046 27.3385 16.718C26.5465 16.826 25.7725 16.94 25.0165 17.06C24.2605 17.174 23.6005 17.312 23.0365 17.474C22.2865 17.714 21.7165 18.071 21.3265 18.545C20.9365 19.019 20.7415 19.622 20.7415 20.354C20.7415 20.882 20.8645 21.368 21.1105 21.812C21.3625 22.25 21.7315 22.604 22.2175 22.874C22.7095 23.138 23.3125 23.27 24.0265 23.27ZM24.3595 21.731C23.7595 21.731 23.3155 21.593 23.0275 21.317C22.7455 21.041 22.6045 20.714 22.6045 20.336C22.6045 19.952 22.7305 19.649 22.9825 19.427C23.2405 19.205 23.5615 19.028 23.9455 18.896C24.3535 18.776 24.8335 18.671 25.3855 18.581C25.9435 18.491 26.5885 18.392 27.3205 18.284C27.3145 18.512 27.2995 18.767 27.2755 19.049C27.2515 19.331 27.2005 19.583 27.1225 19.805C27.0505 20.123 26.8975 20.429 26.6635 20.723C26.4355 21.017 26.1265 21.26 25.7365 21.452C25.3525 21.638 24.8935 21.731 24.3595 21.731ZM31.5295 23H33.4285V18.095C33.4285 17.525 33.5185 16.997 33.6985 16.511C33.8785 16.025 34.1965 15.635 34.6525 15.341C34.9765 15.131 35.3335 15.008 35.7235 14.972C36.1135 14.936 36.4645 14.96 36.7765 15.044V13.28C36.3385 13.196 35.8735 13.199 35.3815 13.289C34.8955 13.379 34.4695 13.559 34.1035 13.829C33.7435 14.069 33.4435 14.402 33.2035 14.828V13.28H31.5295V23ZM38.4815 23H40.3895V17.942C40.3895 17.174 40.5005 16.562 40.7225 16.106C40.9505 15.644 41.2505 15.311 41.6225 15.107C41.9945 14.903 42.4055 14.801 42.8555 14.801C43.3715 14.801 43.7915 14.906 44.1155 15.116C44.4395 15.326 44.6885 15.602 44.8625 15.944C45.0365 16.286 45.1535 16.658 45.2135 17.06C45.2795 17.456 45.3125 17.843 45.3125 18.221V23H47.2205V17.6C47.2205 17.3 47.1935 16.952 47.1395 16.556C47.0855 16.16 46.9835 15.755 46.8335 15.341C46.6835 14.927 46.4645 14.546 46.1765 14.198C45.8945 13.844 45.5255 13.559 45.0695 13.343C44.6135 13.127 44.0495 13.019 43.3775 13.019C42.6755 13.019 42.0515 13.145 41.5055 13.397C40.9655 13.649 40.5185 13.997 40.1645 14.441V13.28H38.4815V23ZM55.9132 23.27C57.4612 23.27 58.6282 22.709 59.4142 21.587V23H61.0792V17.015C61.0792 16.607 61.0612 16.226 61.0252 15.872C60.9892 15.518 60.8932 15.182 60.7372 14.864C60.4372 14.222 59.9632 13.754 59.3152 13.46C58.6732 13.16 57.9172 13.01 57.0472 13.01C55.9252 13.01 55.0252 13.256 54.3472 13.748C53.6692 14.24 53.2132 14.903 52.9792 15.737L54.7342 16.277C54.9022 15.737 55.1992 15.347 55.6252 15.107C56.0512 14.867 56.5192 14.747 57.0292 14.747C57.7852 14.747 58.3312 14.909 58.6672 15.233C59.0092 15.551 59.1952 16.046 59.2252 16.718C58.4332 16.826 57.6592 16.94 56.9032 17.06C56.1472 17.174 55.4872 17.312 54.9232 17.474C54.1732 17.714 53.6032 18.071 53.2132 18.545C52.8232 19.019 52.6282 19.622 52.6282 20.354C52.6282 20.882 52.7512 21.368 52.9972 21.812C53.2492 22.25 53.6182 22.604 54.1042 22.874C54.5962 23.138 55.1992 23.27 55.9132 23.27ZM56.2462 21.731C55.6462 21.731 55.2022 21.593 54.9142 21.317C54.6322 21.041 54.4912 20.714 54.4912 20.336C54.4912 19.952 54.6172 19.649 54.8692 19.427C55.1272 19.205 55.4482 19.028 55.8322 18.896C56.2402 18.776 56.7202 18.671 57.2722 18.581C57.8302 18.491 58.4752 18.392 59.2072 18.284C59.2012 18.512 59.1862 18.767 59.1622 19.049C59.1382 19.331 59.0872 19.583 59.0092 19.805C58.9372 20.123 58.7842 20.429 58.5502 20.723C58.3222 21.017 58.0132 21.26 57.6232 21.452C57.2392 21.638 56.7802 21.731 56.2462 21.731ZM63.4073 23H65.0813V22.109C65.4353 22.475 65.8523 22.76 66.3323 22.964C66.8183 23.168 67.3673 23.27 67.9793 23.27C68.8853 23.27 69.6653 23.045 70.3193 22.595C70.9793 22.139 71.4863 21.524 71.8403 20.75C72.2003 19.976 72.3803 19.103 72.3803 18.131C72.3803 17.153 72.2003 16.28 71.8403 15.512C71.4803 14.738 70.9673 14.129 70.3013 13.685C69.6413 13.235 68.8553 13.01 67.9433 13.01C67.4033 13.01 66.9113 13.091 66.4673 13.253C66.0233 13.415 65.6333 13.646 65.2973 13.946V10.04H63.4073V23ZM67.7183 21.569C66.7943 21.569 66.1223 21.248 65.7023 20.606C65.2883 19.964 65.0813 19.139 65.0813 18.131C65.0813 17.123 65.2883 16.301 65.7023 15.665C66.1163 15.029 66.7673 14.711 67.6553 14.711C68.2793 14.711 68.7923 14.864 69.1943 15.17C69.5963 15.476 69.8933 15.887 70.0853 16.403C70.2833 16.919 70.3823 17.495 70.3823 18.131C70.3823 18.773 70.2863 19.355 70.0943 19.877C69.9023 20.393 69.6083 20.804 69.2123 21.11C68.8223 21.416 68.3243 21.569 67.7183 21.569ZM78.5884 23.27C79.5544 23.27 80.3944 23.054 81.1084 22.622C81.8224 22.184 82.3744 21.581 82.7644 20.813C83.1604 20.039 83.3584 19.145 83.3584 18.131C83.3584 17.129 83.1634 16.244 82.7734 15.476C82.3834 14.702 81.8314 14.099 81.1174 13.667C80.4034 13.229 79.5604 13.01 78.5884 13.01C77.6344 13.01 76.8004 13.226 76.0864 13.658C75.3724 14.09 74.8174 14.69 74.4214 15.458C74.0254 16.226 73.8274 17.117 73.8274 18.131C73.8274 19.133 74.0224 20.021 74.4124 20.795C74.8024 21.569 75.3514 22.175 76.0594 22.613C76.7734 23.051 77.6164 23.27 78.5884 23.27ZM78.5884 21.497C77.6824 21.497 76.9954 21.194 76.5274 20.588C76.0594 19.976 75.8254 19.157 75.8254 18.131C75.8254 17.141 76.0504 16.337 76.5004 15.719C76.9504 15.095 77.6464 14.783 78.5884 14.783C79.5064 14.783 80.1964 15.086 80.6584 15.692C81.1264 16.298 81.3604 17.111 81.3604 18.131C81.3604 19.127 81.1294 19.937 80.6674 20.561C80.2114 21.185 79.5184 21.497 78.5884 21.497ZM88.9992 23.261C89.7012 23.261 90.3222 23.135 90.8622 22.883C91.4082 22.631 91.8582 22.283 92.2122 21.839V23H93.8862V13.28H91.9872V18.338C91.9872 19.106 91.8762 19.721 91.6542 20.183C91.4322 20.639 91.1322 20.969 90.7542 21.173C90.3822 21.377 89.9712 21.479 89.5212 21.479C89.0052 21.479 88.5852 21.374 88.2612 21.164C87.9372 20.954 87.6882 20.678 87.5142 20.336C87.3402 19.994 87.2202 19.625 87.1542 19.229C87.0942 18.827 87.0642 18.437 87.0642 18.059V13.28H85.1562V18.68C85.1562 18.98 85.1832 19.328 85.2372 19.724C85.2912 20.12 85.3932 20.525 85.5432 20.939C85.6932 21.353 85.9092 21.737 86.1912 22.091C86.4792 22.439 86.8512 22.721 87.3072 22.937C87.7632 23.153 88.3272 23.261 88.9992 23.261ZM101.972 23V21.407C101.336 21.503 100.781 21.524 100.307 21.47C99.8394 21.41 99.4974 21.197 99.2814 20.831C99.1674 20.633 99.1044 20.39 99.0924 20.102C99.0864 19.814 99.0834 19.475 99.0834 19.085V14.792H101.972V13.28H99.0834V10.58H97.1934V13.28H95.3304V14.792H97.1934V19.175C97.1934 19.703 97.1994 20.177 97.2114 20.597C97.2294 21.011 97.3434 21.419 97.5534 21.821C97.7934 22.271 98.1444 22.601 98.6064 22.811C99.0684 23.021 99.5934 23.135 100.181 23.153C100.769 23.171 101.366 23.12 101.972 23ZM111.342 23.261C112.572 23.261 113.535 22.988 114.231 22.442C114.933 21.896 115.284 21.143 115.284 20.183C115.284 19.679 115.179 19.253 114.969 18.905C114.765 18.557 114.423 18.257 113.943 18.005C113.463 17.747 112.815 17.513 111.999 17.303C111.237 17.111 110.661 16.946 110.271 16.808C109.887 16.664 109.626 16.52 109.488 16.376C109.35 16.226 109.281 16.043 109.281 15.827C109.281 15.455 109.458 15.164 109.812 14.954C110.166 14.738 110.628 14.642 111.198 14.666C111.792 14.69 112.275 14.84 112.647 15.116C113.019 15.386 113.238 15.752 113.304 16.214L115.23 15.863C115.122 14.999 114.699 14.309 113.961 13.793C113.223 13.271 112.296 13.01 111.18 13.01C110.04 13.01 109.125 13.277 108.435 13.811C107.745 14.339 107.4 15.044 107.4 15.926C107.4 16.4 107.502 16.805 107.706 17.141C107.916 17.471 108.264 17.759 108.75 18.005C109.242 18.251 109.905 18.485 110.739 18.707C111.501 18.911 112.068 19.082 112.44 19.22C112.812 19.358 113.055 19.505 113.169 19.661C113.289 19.811 113.349 20.009 113.349 20.255C113.349 20.675 113.181 21.005 112.845 21.245C112.515 21.485 112.056 21.605 111.468 21.605C110.82 21.605 110.277 21.461 109.839 21.173C109.407 20.885 109.131 20.486 109.011 19.976L107.085 20.273C107.253 21.221 107.709 21.956 108.453 22.478C109.197 23 110.16 23.261 111.342 23.261ZM121.587 23.27C122.529 23.27 123.384 23.033 124.152 22.559C124.92 22.079 125.493 21.404 125.871 20.534L124.026 19.949C123.534 20.981 122.691 21.497 121.497 21.497C120.681 21.497 120.039 21.251 119.571 20.759C119.103 20.267 118.83 19.571 118.752 18.671H125.997C126.063 17.507 125.925 16.502 125.583 15.656C125.241 14.81 124.722 14.159 124.026 13.703C123.33 13.241 122.487 13.01 121.497 13.01C120.549 13.01 119.718 13.223 119.004 13.649C118.29 14.075 117.732 14.678 117.33 15.458C116.934 16.238 116.736 17.159 116.736 18.221C116.736 19.223 116.937 20.105 117.339 20.867C117.747 21.623 118.314 22.214 119.04 22.64C119.772 23.06 120.621 23.27 121.587 23.27ZM121.569 14.675C123.039 14.675 123.873 15.518 124.071 17.204H118.797C118.917 16.382 119.208 15.755 119.67 15.323C120.132 14.891 120.765 14.675 121.569 14.675ZM128.016 23H129.915V18.095C129.915 17.525 130.005 16.997 130.185 16.511C130.365 16.025 130.683 15.635 131.139 15.341C131.463 15.131 131.82 15.008 132.21 14.972C132.6 14.936 132.951 14.96 133.263 15.044V13.28C132.825 13.196 132.36 13.199 131.868 13.289C131.382 13.379 130.956 13.559 130.59 13.829C130.23 14.069 129.93 14.402 129.69 14.828V13.28H128.016V23ZM137.605 23H139.513L143.041 13.28H141.142L138.559 20.642L135.976 13.28H134.077L137.605 23ZM144.842 11.687H146.723V9.86H144.842V11.687ZM144.842 23H146.723V13.28H144.842V23ZM153.584 23.27C154.628 23.27 155.516 23.018 156.248 22.514C156.98 22.01 157.505 21.281 157.823 20.327L155.915 19.877C155.717 20.399 155.429 20.801 155.051 21.083C154.679 21.359 154.19 21.497 153.584 21.497C152.696 21.497 152.024 21.188 151.568 20.57C151.118 19.952 150.89 19.142 150.884 18.14C150.89 17.168 151.109 16.367 151.541 15.737C151.979 15.101 152.66 14.783 153.584 14.783C154.13 14.783 154.613 14.936 155.033 15.242C155.459 15.542 155.765 15.965 155.951 16.511L157.823 15.971C157.583 15.059 157.085 14.339 156.329 13.811C155.579 13.277 154.673 13.01 153.611 13.01C152.633 13.01 151.79 13.229 151.082 13.667C150.38 14.105 149.84 14.711 149.462 15.485C149.084 16.253 148.892 17.138 148.886 18.14C148.892 19.124 149.078 20.003 149.444 20.777C149.816 21.551 150.35 22.16 151.046 22.604C151.748 23.048 152.594 23.27 153.584 23.27ZM163.704 23.27C164.646 23.27 165.501 23.033 166.269 22.559C167.037 22.079 167.61 21.404 167.988 20.534L166.143 19.949C165.651 20.981 164.808 21.497 163.614 21.497C162.798 21.497 162.156 21.251 161.688 20.759C161.22 20.267 160.947 19.571 160.869 18.671H168.114C168.18 17.507 168.042 16.502 167.7 15.656C167.358 14.81 166.839 14.159 166.143 13.703C165.447 13.241 164.604 13.01 163.614 13.01C162.666 13.01 161.835 13.223 161.121 13.649C160.407 14.075 159.849 14.678 159.447 15.458C159.051 16.238 158.853 17.159 158.853 18.221C158.853 19.223 159.054 20.105 159.456 20.867C159.864 21.623 160.431 22.214 161.157 22.64C161.889 23.06 162.738 23.27 163.704 23.27ZM163.686 14.675C165.156 14.675 165.99 15.518 166.188 17.204H160.914C161.034 16.382 161.325 15.755 161.787 15.323C162.249 14.891 162.882 14.675 163.686 14.675ZM173.85 23.261C175.08 23.261 176.043 22.988 176.739 22.442C177.441 21.896 177.792 21.143 177.792 20.183C177.792 19.679 177.687 19.253 177.477 18.905C177.273 18.557 176.931 18.257 176.451 18.005C175.971 17.747 175.323 17.513 174.507 17.303C173.745 17.111 173.169 16.946 172.779 16.808C172.395 16.664 172.134 16.52 171.996 16.376C171.858 16.226 171.789 16.043 171.789 15.827C171.789 15.455 171.966 15.164 172.32 14.954C172.674 14.738 173.136 14.642 173.706 14.666C174.3 14.69 174.783 14.84 175.155 15.116C175.527 15.386 175.746 15.752 175.812 16.214L177.738 15.863C177.63 14.999 177.207 14.309 176.469 13.793C175.731 13.271 174.804 13.01 173.688 13.01C172.548 13.01 171.633 13.277 170.943 13.811C170.253 14.339 169.908 15.044 169.908 15.926C169.908 16.4 170.01 16.805 170.214 17.141C170.424 17.471 170.772 17.759 171.258 18.005C171.75 18.251 172.413 18.485 173.247 18.707C174.009 18.911 174.576 19.082 174.948 19.22C175.32 19.358 175.563 19.505 175.677 19.661C175.797 19.811 175.857 20.009 175.857 20.255C175.857 20.675 175.689 21.005 175.353 21.245C175.023 21.485 174.564 21.605 173.976 21.605C173.328 21.605 172.785 21.461 172.347 21.173C171.915 20.885 171.639 20.486 171.519 19.976L169.593 20.273C169.761 21.221 170.217 21.956 170.961 22.478C171.705 23 172.668 23.261 173.85 23.261Z" fill="#1E1B1B"/>
<path d="M247.707 16.7071C248.098 16.3166 248.098 15.6834 247.707 15.2929L241.343 8.92893C240.953 8.53841 240.319 8.53841 239.929 8.92893C239.538 9.31946 239.538 9.95262 239.929 10.3431L245.586 16L239.929 21.6569C239.538 22.0474 239.538 22.6805 239.929 23.0711C240.319 23.4616 240.953 23.4616 241.343 23.0711L247.707 16.7071ZM195 17H247V15H195V17Z" fill="#1E1B1B"/>
</svg>
